<svg width="18" height="18" viewBox="0 0 18 18" fill="none" xmlns="http://www.w3.org/2000/svg">
<path d="M3.04134 0.225586C2.37277 0.225586 1.73159 0.491173 1.25884 0.963921C0.786095 1.43667 0.520508 2.07785 0.520508 2.74642V5.49642C0.520508 6.16499 0.786095 6.80617 1.25884 7.27892C1.73159 7.75167 2.37277 8.01725 3.04134 8.01725H5.79134C6.45991 8.01725 7.10109 7.75167 7.57384 7.27892C8.04659 6.80617 8.31217 6.16499 8.31217 5.49642V2.74642C8.31217 2.07785 8.04659 1.43667 7.57384 0.963921C7.10109 0.491173 6.45991 0.225586 5.79134 0.225586H3.04134ZM1.89551 2.74642C1.89551 2.11392 2.40884 1.60059 3.04134 1.60059H5.79134C6.42384 1.60059 6.93717 2.11392 6.93717 2.74642V5.49642C6.93717 6.12892 6.42384 6.64225 5.79134 6.64225H3.04134C2.40884 6.64225 1.89551 6.12892 1.89551 5.49642V2.74642ZM3.04134 9.39225C2.37277 9.39225 1.73159 9.65784 1.25884 10.1306C0.786095 10.6033 0.520508 11.2445 0.520508 11.9131V14.6631C0.520508 15.3317 0.786095 15.9728 1.25884 16.4456C1.73159 16.9183 2.37277 17.1839 3.04134 17.1839H5.79134C6.45991 17.1839 7.10109 16.9183 7.57384 16.4456C8.04659 15.9728 8.31217 15.3317 8.31217 14.6631V11.9131C8.31217 11.2445 8.04659 10.6033 7.57384 10.1306C7.10109 9.65784 6.45991 9.39225 5.79134 9.39225H3.04134ZM1.89551 11.9131C1.89551 11.2806 2.40884 10.7673 3.04134 10.7673H5.79134C6.42384 10.7673 6.93717 11.2806 6.93717 11.9131V14.6631C6.93717 15.2956 6.42384 15.8089 5.79134 15.8089H3.04134C2.40884 15.8089 1.89551 15.2956 1.89551 14.6631V11.9131ZM9.68717 2.74642C9.68717 2.07785 9.95276 1.43667 10.4255 0.963921C10.8983 0.491173 11.5394 0.225586 12.208 0.225586H14.958C15.6266 0.225586 16.2678 0.491173 16.7405 0.963921C17.2133 1.43667 17.4788 2.07785 17.4788 2.74642V5.49642C17.4788 6.16499 17.2133 6.80617 16.7405 7.27892C16.2678 7.75167 15.6266 8.01725 14.958 8.01725H12.208C11.5394 8.01725 10.8983 7.75167 10.4255 7.27892C9.95276 6.80617 9.68717 6.16499 9.68717 5.49642V2.74642ZM12.208 1.60059C11.5755 1.60059 11.0622 2.11392 11.0622 2.74642V5.49642C11.0622 6.12892 11.5755 6.64225 12.208 6.64225H14.958C15.5905 6.64225 16.1038 6.12892 16.1038 5.49642V2.74642C16.1038 2.11392 15.5905 1.60059 14.958 1.60059H12.208ZM12.208 9.39225C11.5394 9.39225 10.8983 9.65784 10.4255 10.1306C9.95276 10.6033 9.68717 11.2445 9.68717 11.9131V14.6631C9.68717 15.3317 9.95276 15.9728 10.4255 16.4456C10.8983 16.9183 11.5394 17.1839 12.208 17.1839H14.958C15.6266 17.1839 16.2678 16.9183 16.7405 16.4456C17.2133 15.9728 17.4788 15.3317 17.4788 14.6631V11.9131C17.4788 11.2445 17.2133 10.6033 16.7405 10.1306C16.2678 9.65784 15.6266 9.39225 14.958 9.39225H12.208ZM11.0622 11.9131C11.0622 11.2806 11.5755 10.7673 12.208 10.7673H14.958C15.5905 10.7673 16.1038 11.2806 16.1038 11.9131V14.6631C16.1038 15.2956 15.5905 15.8089 14.958 15.8089H12.208C11.5755 15.8089 11.0622 15.2956 11.0622 14.6631V11.9131Z" fill="#FFCE38"/>
</svg>
